<?xml version="1.0" standalone="no"?>
<!DOCTYPE svg PUBLIC "-//W3C//DTD SVG 20010904//EN"
 "http://www.w3.org/TR/2001/REC-SVG-20010904/DTD/svg10.dtd">
<svg version="1.0" xmlns="http://www.w3.org/2000/svg"
 width="1280.000000pt" height="341.000000pt" viewBox="0 0 1280.000000 341.000000"
 preserveAspectRatio="xMidYMid meet">
<metadata>
Created by potrace 1.16, written by Peter Selinger 2001-2019
</metadata>
<g transform="translate(0.000000,341.000000) scale(0.100000,-0.100000)"
fill="#000000" stroke="none">
<path d="M8505 3378 c-275 -18 -527 -128 -727 -317 -134 -127 -215 -237 -298
-406 -143 -292 -203 -576 -203 -965 0 -375 60 -668 194 -949 127 -267 331
-487 565 -608 177 -92 354 -133 578 -133 378 0 660 117 908 378 105 111 181
223 252 373 257 543 257 1335 0 1878 -72 151 -148 263 -256 377 -270 282 -589
399 -1013 372z m350 -528 c402 -127 615 -530 615 -1160 0 -337 -59 -602 -181
-813 -58 -99 -202 -241 -294 -289 -117 -61 -194 -80 -340 -85 -94 -4 -150 -1
-200 10 -354 76 -574 347 -658 812 -19 103 -22 156 -22 370 1 216 4 266 23
367 56 298 163 509 329 650 72 61 215 132 308 152 105 23 327 16 420 -14z"/>
<path d="M11520 3379 c-491 -33 -847 -315 -925 -734 -23 -120 -16 -345 13
-456 66 -249 230 -411 551 -546 58 -25 240 -89 404 -143 164 -55 344 -121 400
-148 235 -113 317 -217 317 -401 0 -226 -118 -369 -357 -432 -101 -27 -322
-37 -430 -19 -223 35 -436 144 -620 314 l-71 66 -170 -177 -171 -178 52 -55
c143 -152 325 -282 495 -354 206 -87 360 -116 606 -116 621 0 1007 240 1126
700 31 121 39 373 15 491 -55 276 -203 453 -501 603 -132 66 -228 103 -507
195 -367 121 -493 179 -588 273 -68 68 -92 137 -87 249 5 103 35 175 104 243
100 101 240 141 464 133 262 -9 446 -83 630 -254 l61 -56 34 34 c18 19 94 99
170 178 l136 144 -43 44 c-218 224 -558 382 -858 399 -47 3 -98 6 -115 7 -16
2 -77 0 -135 -4z"/>
<path d="M251 3326 c-111 -37 -217 -150 -241 -259 -7 -29 -11 -89 -9 -133 7
-139 82 -254 207 -316 36 -18 68 -24 137 -26 122 -5 188 19 265 97 95 95 134
215 111 340 -34 183 -167 301 -346 308 -50 2 -96 -3 -124 -11z"/>
<path d="M1503 3322 c-99 -35 -191 -127 -225 -225 -25 -75 -24 -200 3 -273 30
-80 92 -151 169 -193 58 -32 74 -36 155 -39 122 -5 188 19 265 97 96 96 134
214 111 340 -34 183 -166 301 -346 308 -59 3 -93 -1 -132 -15z"/>
<path d="M2763 3322 c-101 -36 -188 -124 -224 -229 -17 -47 -20 -75 -17 -148
7 -148 68 -250 190 -315 55 -30 74 -35 153 -38 112 -5 180 18 254 84 128 115
164 294 92 450 -39 84 -91 138 -168 176 -83 41 -198 49 -280 20z"/>
<path d="M4280 1690 l0 -1640 240 0 240 0 0 645 0 645 353 0 352 0 312 -643
311 -642 282 -3 c225 -2 281 0 277 10 -3 7 -148 306 -321 665 -174 359 -316
654 -316 657 0 2 24 12 54 20 85 25 230 102 309 165 224 178 343 492 323 851
-28 495 -307 810 -792 895 -72 12 -215 15 -855 15 l-769 0 0 -1640z m1534
1155 c206 -44 343 -181 382 -382 49 -255 -44 -486 -235 -582 -116 -59 -136
-61 -693 -61 l-508 0 0 520 0 520 493 0 c393 0 506 -3 561 -15z"/>
<path d="M269 2057 c-100 -29 -183 -98 -236 -199 -26 -49 -28 -62 -28 -168 0
-112 1 -117 34 -178 41 -76 104 -135 179 -170 48 -22 71 -27 142 -26 113 0
188 32 264 115 73 79 99 147 99 259 0 112 -26 180 -99 259 -91 98 -234 142
-355 108z"/>
<path d="M1529 2057 c-100 -29 -183 -98 -236 -199 -26 -49 -28 -62 -28 -163 0
-104 2 -114 32 -176 39 -79 102 -140 181 -177 48 -22 71 -27 142 -26 72 0 94
4 148 28 80 37 161 122 193 203 29 75 32 195 6 269 -35 102 -125 196 -217 229
-62 22 -165 28 -221 12z"/>
<path d="M2789 2056 c-102 -27 -190 -103 -238 -205 -23 -49 -26 -68 -26 -161
0 -99 2 -110 32 -171 39 -79 102 -140 181 -177 47 -22 71 -27 142 -27 75 0 93
4 150 31 110 53 175 133 206 254 28 110 -1 244 -72 333 -84 108 -242 159 -375
123z"/>
<path d="M303 789 c-111 -14 -212 -90 -265 -197 -31 -63 -33 -73 -33 -177 0
-99 3 -115 27 -165 35 -71 107 -143 178 -178 48 -24 67 -27 150 -27 82 0 103
4 152 27 148 69 239 243 210 405 -15 87 -48 150 -112 214 -81 82 -183 114
-307 98z"/>
<path d="M1563 789 c-111 -14 -212 -90 -265 -197 -31 -63 -33 -73 -33 -177 0
-99 3 -115 27 -165 35 -71 107 -143 178 -178 48 -24 67 -27 150 -27 82 0 103
4 150 26 77 37 131 87 168 156 86 162 56 354 -75 473 -81 74 -183 105 -300 89z"/>
<path d="M2823 789 c-111 -14 -220 -98 -271 -207 -24 -51 -27 -69 -27 -167 0
-102 2 -114 29 -168 35 -69 117 -149 183 -179 38 -18 67 -22 143 -23 82 0 102
3 150 26 85 41 135 90 177 176 35 71 37 81 37 167 0 125 -26 190 -108 272 -88
87 -186 120 -313 103z"/>
</g>
</svg>
